<svg width="211" height="211" viewBox="0 0 211 211" fill="none" xmlns="http://www.w3.org/2000/svg">
<circle cx="105.5" cy="105.5" r="105.5" fill="#F5A503"/>
<circle cx="93" cy="107" r="90" fill="#FAA905"/>
<path d="M7 127L43.5 86.5C43.5 86.5 73.5 52 84.5 52C95.5 52 121.5 77 121.5 77L162.5 115C162.5 115 164.2 122.633 162.5 127C159.729 134.117 146 137.5 146 137.5C146 137.5 131.26 142.817 121.5 142.5L88 143.5C88 143.5 64.6208 149.68 55.5 149C48.2298 148.458 44.3822 146.024 38 142.5C29.7488 137.944 28.669 129.183 19.5 127C14.7512 125.869 7 127 7 127Z" fill="#E9F1DF"/>
<path d="M7.77492 140.6C-9.00066 137.329 35.5723 106.796 35.5723 106.796C35.5723 106.796 58.4195 78 66.7968 78C75.174 78 94.9749 98.8665 94.9749 98.8665L126.199 130.584C126.199 130.584 127.494 136.955 126.199 140.6C124.089 146.54 113.633 149.364 113.633 149.364C113.633 149.364 102.408 153.801 94.9749 153.537C88.558 153.309 85.0789 149.364 78.9819 149.364C72.1414 149.364 61.8465 153.537 61.8465 153.537C61.8465 153.537 51.6573 159.53 44.7112 158.962C39.1744 158.51 36.2441 156.478 31.3836 153.537C25.0998 149.734 27.7578 151.186 20.7749 149.364C17.1583 148.42 11.4239 141.311 7.77492 140.6Z" fill="#F3FBEA"/>
<path d="M49.5 137L86 96.5C86 96.5 116 62 127 62C138 62 164 87 164 87L205 125C205 125 206.7 132.633 205 137C202.229 144.117 188.5 147.5 188.5 147.5C188.5 147.5 173.76 152.817 164 152.5L130.5 153.5C130.5 153.5 107.121 159.68 98 159C90.7298 158.458 86.8822 156.024 80.5 152.5C72.2488 147.944 71.169 139.183 62 137C57.2512 135.869 49.5 137 49.5 137Z" fill="#D98C4A"/>
<path d="M44 140.6C27.2244 137.329 71.7974 106.796 71.7974 106.796C71.7974 106.796 94.6446 78 103.022 78C111.399 78 131.2 98.8665 131.2 98.8665L162.424 130.584C162.424 130.584 163.719 136.955 162.424 140.6C160.314 146.54 149.859 149.364 149.859 149.364C149.859 149.364 138.633 153.801 131.2 153.537C124.783 153.309 121.304 149.364 115.207 149.364C108.367 149.364 98.0716 153.537 98.0716 153.537C98.0716 153.537 87.8824 159.53 80.9363 158.962C75.3995 158.51 72.4692 156.478 67.6087 153.537C61.3249 149.734 63.9829 151.186 57 149.364C53.3834 148.42 47.649 141.311 44 140.6Z" fill="#DE9352"/>
</svg>
