<svg width="214" height="211" viewBox="0 0 214 211" fill="none" xmlns="http://www.w3.org/2000/svg">
<ellipse cx="107" cy="105.5" rx="107" ry="105.5" fill="#36B1BF"/>
<ellipse cx="93.207" cy="100.143" rx="93.207" ry="91.0762" fill="#3DB6C4"/>
<path d="M80.9927 90.8952C84.6735 92.5047 88.3848 92.0185 90.1906 95.4536C91.5618 98.0618 91.2824 100.189 90.1906 102.913C89.0318 105.804 87.3865 107.271 84.4966 108.714C80.4125 110.754 72.6707 108.714 72.6707 108.714L21.4247 95.4536C17.5296 93.9488 11.7887 90.8952 11.7887 90.8952L10.0367 85.0936C10.0367 85.0936 9.84137 79.5443 11.7887 76.8055C15.9896 70.8974 35.8787 76.8055 35.8787 76.8055L80.9927 90.8952Z" fill="#BF6734"/>
<path d="M80.9926 94.8146C84.6735 96.0872 88.3848 95.7028 90.1906 98.4189C91.5618 100.481 91.2824 102.163 90.1906 104.317C89.0318 106.603 87.3865 107.763 84.4967 108.904C80.4125 110.517 72.6707 108.904 72.6707 108.904L21.4247 98.4189C17.5296 97.229 11.7887 94.8146 11.7887 94.8146L10.0367 90.2272C10.0367 90.2272 9.84137 78.4057 11.7887 76.2402C15.9896 71.5686 35.8787 83.6739 35.8787 83.6739L80.9926 94.8146Z" fill="#B56232"/>
<path d="M91.1172 108.591L96.5508 99.7305L99.8945 117.918V125.379L101.984 130.042L99.8945 135.172H94.043V123.047V111.389L91.1172 108.591Z" fill="#C4C4C4"/>
<path d="M79.4141 110.033C79.4141 110.033 83.6397 107.585 85.2656 105.088C86.6599 102.947 87.4104 101.45 87.3555 98.9063C87.3039 96.5143 85.2656 93.1367 85.2656 93.1367C85.2656 93.1367 93.1529 95.0483 95.7148 98.9063C97.1286 101.035 97.8047 105.088 97.8047 105.088C97.8047 105.088 93.6312 108.932 90.2812 110.033C86.2551 111.356 79.4141 110.033 79.4141 110.033Z" fill="#D98C4A"/>
<path d="M97.0414 117.901C97.0414 117.901 106.625 112.574 112.743 109.123C120.773 104.592 124 98.5625 133.241 97.4184C141.395 96.409 145.688 100.425 153.74 102.016C160.185 103.291 164.074 102.935 170.313 104.942C181.51 108.544 195.609 120.827 195.609 120.827L170.313 128.769C170.313 128.769 151.331 131.93 143.709 133.367C125.155 136.864 95.2969 134.203 95.2969 134.203L97.0414 117.901Z" fill="#F0F2F2"/>
<path d="M96.8524 119.027C96.8524 119.027 105.398 114.048 110.853 110.821C118.013 106.586 120.89 100.95 129.131 99.8806C136.401 98.937 140.229 102.691 147.408 104.179C153.156 105.37 156.623 105.038 162.186 106.914C172.17 110.281 186.414 124.045 186.414 124.045L164.68 129.402C164.68 129.402 145.26 132.141 138.464 133.484C121.92 136.754 95.2969 134.266 95.2969 134.266L96.8524 119.027Z" fill="#FDFFFF"/>
<path d="M96.5242 119.027C96.5242 119.027 103.267 114.048 107.57 110.821C113.219 106.586 115.49 100.95 121.991 99.8806C127.728 98.937 130.748 102.691 136.412 104.179C140.947 105.37 143.683 105.038 148.072 106.914C155.949 110.281 171.367 127.754 171.367 127.754L149.633 131.875C149.633 131.875 137.584 133.201 133.332 134.266C120.279 137.535 95.2969 134.266 95.2969 134.266L96.5242 119.027Z" fill="#F0F2F2"/>
</svg>
