<svg width="60" height="60" viewBox="0 0 60 60" fill="none" xmlns="http://www.w3.org/2000/svg">
<rect width="60" height="60" rx="8" fill="#595959"/>
<path d="M51.1537 50.4336C51.1537 55.9065 37.1394 54.4355 30.494 54.4355C23.8486 54.4355 18.4614 49.9988 18.4614 44.5259C18.4614 39.0529 30.0766 39.2314 36.722 39.2314C43.3674 39.2314 51.1537 44.9606 51.1537 50.4336Z" fill="#737373"/>
<path d="M29.9999 21.785C29.9999 26.6666 24.4896 36.0157 17.6922 36.0157C10.8949 36.0157 5.38452 32.0584 5.38452 27.1768C5.38452 22.2951 10.8949 21.785 17.6922 21.785C24.4896 21.785 29.9999 16.9033 29.9999 21.785Z" fill="#737373"/>
<path d="M51.1538 8.53669C51.1538 14.4476 40.9389 15.0653 28.3382 15.0653C15.7376 15.0653 5.52272 20.9761 5.52272 15.0653C5.52272 9.1544 2.4514 2.81129 25.2669 5.90964C37.8676 5.90964 51.1538 2.62583 51.1538 8.53669Z" fill="#737373"/>
<path d="M12.0342 37.6921C14.857 37.6921 15.7693 38.3274 15.7693 42.7866C15.7693 54.4629 20 48.4617 15.7693 53.2692C11.5385 58.0768 6.9231 53.2691 6.9231 45.7662C6.9231 41.307 9.21142 37.6921 12.0342 37.6921Z" fill="#737373"/>
<path d="M55 28.9011C55 33.7564 47.4604 37.6923 41.6587 37.6923C35.857 37.6923 31.1538 33.7564 31.1538 28.9011C31.1538 24.0459 35.857 18.4615 41.6587 18.4615C47.4604 18.4615 55 24.0459 55 28.9011Z" fill="#737373"/>
<g filter="url(#filter0_d)">
<path d="M33.5736 18.904C30.5576 18.904 28.2523 20.0307 26.6576 22.284C25.063 24.5373 24.2656 27.6227 24.2656 31.54C24.2656 35.492 24.9936 38.56 26.4496 40.744C27.9403 42.8933 30.315 43.968 33.5736 43.968C35.099 43.968 36.607 43.7947 38.0976 43.448C39.623 43.1013 41.2696 42.616 43.0376 41.992V48.596C41.4083 49.2547 39.7963 49.74 38.2016 50.052C36.607 50.364 34.8216 50.52 32.8456 50.52C29.0323 50.52 25.8776 49.74 23.3816 48.18C20.9203 46.5853 19.1003 44.3667 17.9216 41.524C16.743 38.6467 16.1536 35.3013 16.1536 31.488C16.1536 27.744 16.8296 24.4333 18.1816 21.556C19.5336 18.6787 21.4923 16.4253 24.0576 14.796C26.6576 13.1667 29.8296 12.352 33.5736 12.352C35.411 12.352 37.2483 12.5947 39.0856 13.08C40.9576 13.5307 42.743 14.1547 44.4416 14.952L41.8936 21.348C40.507 20.6893 39.103 20.1173 37.6816 19.632C36.295 19.1467 34.9256 18.904 33.5736 18.904Z" fill="white"/>
</g>
<defs>
<filter id="filter0_d" x="12.1536" y="12.3521" width="36.288" height="46.168" filterUnits="userSpaceOnUse" color-interpolation-filters="sRGB">
<feFlood flood-opacity="0" result="BackgroundImageFix"/>
<feColorMatrix in="SourceAlpha" type="matrix" values="0 0 0 0 0 0 0 0 0 0 0 0 0 0 0 0 0 0 127 0"/>
<feOffset dy="4"/>
<feGaussianBlur stdDeviation="2"/>
<feColorMatrix type="matrix" values="0 0 0 0 0 0 0 0 0 0 0 0 0 0 0 0 0 0 0.3 0"/>
<feBlend mode="normal" in2="BackgroundImageFix" result="effect1_dropShadow"/>
<feBlend mode="normal" in="SourceGraphic" in2="effect1_dropShadow" result="shape"/>
</filter>
</defs>
</svg>
