<?xml version="1.0" encoding="UTF-8"?>
<svg xmlns="http://www.w3.org/2000/svg" xmlns:xlink="http://www.w3.org/1999/xlink" width="208pt" height="208pt" viewBox="0 0 208 208" version="1.1">
<g id="surface7540615">
<path style=" stroke:none;fill-rule:nonzero;fill:rgb(100%,100%,100%);fill-opacity:1;" d="M 40 0 C 18.035156 0 0 18.035156 0 40 L 0 136 C 0 157.964844 18.035156 176 40 176 L 136 176 C 157.964844 176 176 157.964844 176 136 L 176 40 C 176 18.035156 157.964844 0 136 0 Z M 40 16 L 136 16 C 149.238281 16 160 26.761719 160 40 L 160 136 C 160 149.238281 149.238281 160 136 160 L 40 160 C 26.761719 160 16 149.238281 16 136 L 16 40 C 16 26.761719 26.761719 16 40 16 Z M 192 40.203125 L 192 168 C 192 181.230469 181.230469 192 168 192 L 40.203125 192 C 47.507812 201.65625 58.984375 208 72 208 L 168 208 C 190.054688 208 208 190.054688 208 168 L 208 72 C 208 58.984375 201.65625 47.507812 192 40.203125 Z M 121.390625 48.046875 C 120.382812 48.230469 119.457031 48.8125 118.828125 49.71875 L 80.578125 106.453125 L 63.296875 89.171875 C 61.738281 87.613281 59.199219 87.613281 57.640625 89.171875 L 49.171875 97.65625 C 47.613281 99.214844 47.613281 101.753906 49.171875 103.3125 L 74.921875 129.078125 C 76.808594 130.957031 79.359375 132 82 132 C 82.296875 132 82.59375 131.984375 82.890625 131.953125 C 85.84375 131.679688 88.539062 130.128906 90.21875 127.6875 L 135.28125 61.078125 C 136.539062 59.261719 136.082031 56.773438 134.265625 55.515625 L 124.390625 48.703125 C 123.480469 48.074219 122.398438 47.863281 121.390625 48.046875 Z M 121.390625 48.046875 "/>
</g>
</svg>
