<svg width="341" height="260" viewBox="0 0 341 260" fill="none" xmlns="http://www.w3.org/2000/svg">
<path d="M340.267 123.295C330.558 227.221 256.268 259.627 175.267 259.627C94.2649 259.627 1.88827e-05 216.046 0 123.295C0 19.3696 94.2649 0 175.267 0C256.268 0 349.975 19.3696 340.267 123.295Z" fill="#056CF2"/>
<path d="M298.609 126.66C290.361 221.49 227.248 251.06 158.432 251.06C89.6164 251.06 9.53345 211.293 9.53345 126.66C9.53345 31.8292 89.6164 14.1548 158.432 14.1548C227.248 14.1548 306.857 31.8292 298.609 126.66Z" fill="#0583F2"/>
<path d="M57.1259 122.63L59.3754 118.976H60.832L57.8671 123.704L60.9029 128.51H59.4334L57.1259 124.791L54.8056 128.51H53.3425L56.3847 123.704L53.4134 118.976H54.8636L57.1259 122.63Z" fill="black"/>
<path d="M99.8038 192.825L100.677 193.029C101.227 193.149 101.691 193.104 102.071 192.892C102.449 192.682 102.694 192.333 102.804 191.849C103.051 190.759 102.641 190.09 101.573 189.839C101.071 189.722 100.636 189.774 100.268 189.997C99.905 190.216 99.6689 190.566 99.5596 191.047L98.3973 190.774C98.5645 190.039 98.9671 189.49 99.6051 189.129C100.248 188.764 100.977 188.678 101.794 188.869C102.657 189.072 103.28 189.462 103.664 190.041C104.049 190.619 104.147 191.321 103.96 192.147C103.868 192.55 103.649 192.911 103.304 193.229C102.962 193.548 102.549 193.748 102.062 193.832C102.527 194.111 102.855 194.469 103.042 194.908C103.232 195.347 103.267 195.837 103.144 196.377C102.954 197.21 102.536 197.809 101.889 198.172C101.242 198.536 100.49 198.617 99.6315 198.416C98.7728 198.215 98.1274 197.814 97.6948 197.215C97.2658 196.617 97.1396 195.932 97.3156 195.158L98.4838 195.431C98.3724 195.921 98.4406 196.349 98.6877 196.716C98.9348 197.083 99.3228 197.329 99.85 197.452C100.411 197.584 100.874 197.536 101.239 197.308C101.604 197.079 101.85 196.687 101.977 196.13C102.099 195.59 102.03 195.136 101.769 194.77C101.508 194.405 101.071 194.145 100.458 193.993L99.5846 193.788L99.8038 192.825ZM105.742 194.809L107.26 190.286L111.945 191.385L111.697 192.476L107.998 191.608L107.146 194.076C107.655 193.914 108.194 193.899 108.764 194.032C109.597 194.228 110.194 194.664 110.557 195.34C110.92 196.012 110.993 196.824 110.777 197.777C110.56 198.734 110.132 199.429 109.496 199.862C108.865 200.292 108.093 200.4 107.18 200.186C106.372 199.997 105.764 199.614 105.357 199.039C104.95 198.465 104.802 197.767 104.913 196.947L106.012 197.204C105.962 197.753 106.058 198.198 106.297 198.541C106.537 198.88 106.905 199.107 107.399 199.222C107.939 199.349 108.404 199.261 108.795 198.959C109.19 198.657 109.463 198.177 109.612 197.517C109.753 196.897 109.699 196.36 109.449 195.907C109.204 195.451 108.806 195.158 108.253 195.028C107.747 194.909 107.323 194.928 106.982 195.086L106.617 195.27L105.742 194.809ZM117.597 201.615C118.013 201.712 118.403 201.669 118.772 201.487C119.139 201.304 119.383 201.025 119.503 200.651L120.603 200.908C120.492 201.299 120.273 201.644 119.944 201.943C119.616 202.243 119.22 202.45 118.758 202.565C118.299 202.681 117.839 202.686 117.379 202.578C116.453 202.361 115.788 201.875 115.381 201.121C114.98 200.365 114.903 199.442 115.151 198.353L115.196 198.155C115.348 197.483 115.606 196.914 115.967 196.447C116.329 195.982 116.769 195.657 117.287 195.474C117.809 195.291 118.38 195.273 119 195.419C119.762 195.597 120.341 195.977 120.738 196.558C121.139 197.141 121.272 197.806 121.138 198.554L120.039 198.296C120.107 197.842 120.023 197.437 119.786 197.081C119.554 196.722 119.219 196.491 118.779 196.388C118.189 196.249 117.681 196.359 117.256 196.716C116.836 197.07 116.533 197.656 116.347 198.472L116.297 198.695C116.116 199.491 116.138 200.141 116.363 200.646C116.588 201.151 116.999 201.475 117.597 201.615ZM124.076 196.743L123.933 197.516C124.567 197.037 125.307 196.897 126.153 197.096C127.103 197.319 127.665 197.841 127.841 198.662C128.142 198.382 128.496 198.183 128.903 198.063C129.313 197.945 129.766 197.943 130.26 198.06C131.75 198.409 132.326 199.389 131.986 200.998L130.935 205.623L129.774 205.351L130.808 200.795C130.921 200.302 130.894 199.908 130.726 199.614C130.561 199.315 130.216 199.104 129.693 198.981C129.262 198.881 128.874 198.928 128.529 199.125C128.185 199.318 127.94 199.63 127.794 200.061L126.752 204.642L125.584 204.368L126.612 199.845C126.84 198.841 126.471 198.226 125.504 197.999C124.742 197.82 124.146 198.028 123.716 198.621L122.57 203.661L121.409 203.388L122.977 196.485L124.076 196.743Z" fill="black"/>
<path d="M231.024 172.565L232.063 171.769L232.649 172.559L231.609 173.354L232.92 175.122L231.963 175.855L230.652 174.087L227.239 176.7L226.816 176.13L226.258 168.285L227.272 167.508L231.024 172.565ZM227.735 175.083L230.066 173.298L227.297 169.565L227.338 169.86L227.735 175.083ZM232.426 169.516L229.99 165.428L233.831 162.488L234.494 163.383L231.462 165.703L232.775 167.952C232.979 167.452 233.315 167.023 233.782 166.666C234.464 166.143 235.178 165.958 235.921 166.111C236.661 166.26 237.321 166.726 237.9 167.506C238.482 168.291 238.731 169.07 238.649 169.843C238.567 170.611 238.152 171.281 237.404 171.854C236.742 172.361 236.063 172.588 235.368 172.536C234.672 172.483 234.051 172.15 233.504 171.535L234.405 170.846C234.786 171.237 235.184 171.449 235.596 171.484C236.006 171.514 236.413 171.374 236.818 171.064C237.261 170.725 237.494 170.307 237.516 169.808C237.543 169.307 237.356 168.786 236.955 168.245C236.578 167.736 236.138 167.434 235.635 167.337C235.135 167.234 234.657 167.357 234.204 167.703C233.789 168.021 233.532 168.363 233.432 168.729L233.335 169.131L232.426 169.516ZM245.178 164.665C245.518 164.405 245.737 164.073 245.835 163.67C245.934 163.266 245.881 162.896 245.676 162.562L246.577 161.872C246.8 162.209 246.919 162.602 246.934 163.05C246.949 163.497 246.85 163.939 246.641 164.374C246.433 164.805 246.141 165.166 245.763 165.455C245.005 166.035 244.211 166.241 243.382 166.073C242.552 165.899 241.807 165.365 241.145 164.473L241.025 164.31C240.616 163.76 240.352 163.194 240.233 162.612C240.115 162.031 240.152 161.48 240.347 160.959C240.545 160.436 240.899 159.98 241.406 159.591C242.031 159.113 242.69 158.906 243.384 158.971C244.081 159.033 244.668 159.357 245.145 159.942L244.245 160.632C243.946 160.287 243.586 160.092 243.165 160.048C242.746 159.998 242.356 160.11 241.996 160.386C241.512 160.756 241.268 161.222 241.265 161.783C241.261 162.337 241.508 162.948 242.004 163.618L242.14 163.801C242.623 164.453 243.128 164.853 243.654 165.003C244.179 165.154 244.687 165.04 245.178 164.665ZM245.669 156.492L246.16 157.1C246.206 156.299 246.576 155.633 247.269 155.103C248.048 154.506 248.803 154.404 249.535 154.795C249.518 154.381 249.596 153.978 249.767 153.585C249.941 153.188 250.231 152.836 250.636 152.525C251.858 151.59 252.966 151.772 253.961 153.071L256.774 156.862L255.821 157.59L253.051 153.857C252.751 153.453 252.437 153.221 252.108 153.162C251.776 153.098 251.396 153.231 250.967 153.559C250.613 153.83 250.4 154.163 250.327 154.558C250.252 154.949 250.329 155.34 250.56 155.732L253.345 159.486L252.388 160.22L249.638 156.512C249.028 155.689 248.326 155.581 247.533 156.188C246.909 156.666 246.682 157.263 246.853 157.979L249.917 162.11L248.965 162.84L244.768 157.181L245.669 156.492Z" fill="black"/>
<path d="M64.5 160L146 180.5L236 126L165.733 108.396L64.5 160Z" fill="#056CF2"/>
<path d="M171.042 120.315V175.444L87.4419 156.819V104.67L171.042 120.315Z" fill="#BF6734" stroke="black"/>
<path d="M97.7085 103.553L171.042 62.2063V108.768L157.475 115.473L97.7085 103.553Z" fill="#BF6734"/>
<path d="M142.442 173.954V166.504H135.842V173.954H142.442Z" fill="#BF6734"/>
<path d="M235.209 75.2436L171.042 64.0688V108.768L179.109 110.258L235.209 75.2436Z" fill="#BF6734" stroke="black"/>
<path d="M154.542 116.963L171.042 108.768L179.475 110.258L168.842 116.963H154.542Z" fill="#401C0F"/>
<path d="M170.309 119.57L245.109 73.0085L248.775 119.57L170.309 175.817V119.57Z" fill="#BF6734" stroke="black"/>
<path d="M142.442 166.132L279.209 69.2837V76.7335L142.442 173.954V166.132Z" fill="#D98C4A"/>
<path d="M142.442 166.132H136.942L275.542 67.4211L278.842 69.2836L142.442 166.132Z" fill="#401C0F"/>
<path d="M57.3752 153.095V141.92L87.0754 125.903V137.45L57.3752 153.095Z" fill="#D98C4A"/>
<path d="M57.3751 152.35V143.41H50.0417V152.35H57.3751Z" fill="#BF6734"/>
<path d="M56.275 143.037H49.675L87.0752 122.178V126.648L56.275 143.037Z" fill="#401C0F"/>
<path d="M210.642 67.4212V61.0889L200.008 66.3038L210.642 67.4212Z" fill="#BF6734"/>
<path d="M200.008 66.3036L196.342 64.8136L206.608 58.8538L210.642 60.7162L200.008 66.3036Z" fill="#401C0F"/>
<path fill-rule="evenodd" clip-rule="evenodd" d="M245.109 72.636L170.675 60.3438L87.4419 105.043L169.575 119.943L245.109 72.636ZM170.675 65.1862L235.209 75.2435L168.475 116.963L97.7086 103.553L170.675 65.1862Z" fill="#401C0F"/>
<path d="M264.164 126.404C264.234 125.999 263.967 125.612 263.568 125.541L257.068 124.384C256.669 124.313 256.288 124.584 256.219 124.989C256.149 125.394 256.415 125.78 256.814 125.851L262.593 126.88L261.58 132.75C261.51 133.156 261.777 133.542 262.176 133.613C262.575 133.684 262.955 133.414 263.025 133.008L264.164 126.404ZM180.263 186.484L263.863 126.885L263.02 125.665L179.42 185.264L180.263 186.484Z" fill="black"/>
<path d="M179.119 185.745C179.05 186.15 179.316 186.537 179.715 186.608L186.216 187.766C186.615 187.836 186.995 187.565 187.065 187.16C187.135 186.755 186.868 186.369 186.469 186.298L180.69 185.269L181.703 179.399C181.773 178.993 181.506 178.607 181.108 178.536C180.709 178.465 180.329 178.736 180.258 179.141L179.119 185.745ZM263.02 125.665L179.42 185.264L180.263 186.484L263.863 126.885L263.02 125.665Z" fill="black"/>
<path d="M167.768 192.463C168.11 192.242 168.211 191.782 167.994 191.435L164.455 185.775C164.238 185.428 163.785 185.325 163.443 185.545C163.101 185.766 163 186.226 163.217 186.574L166.363 191.604L161.411 194.8C161.069 195.021 160.968 195.481 161.185 195.829C161.402 196.176 161.855 196.278 162.197 196.058L167.768 192.463ZM71.8821 170.956L167.215 192.561L167.535 191.107L72.2014 169.502L71.8821 170.956Z" fill="black"/>
<path d="M68.8936 104.144C68.6073 103.852 68.1429 103.852 67.8565 104.144L63.1897 108.885C62.9032 109.175 62.9032 109.648 63.1897 109.938C63.4761 110.23 63.9404 110.23 64.2268 109.938L68.3751 105.724L72.5235 109.938C72.8098 110.23 73.2742 110.23 73.5606 109.938C73.8466 109.648 73.8466 109.175 73.5606 108.885L68.8936 104.144ZM69.1084 152.35V104.67H67.6418V152.35H69.1084Z" fill="black"/>
<path d="M71.6485 169.6C71.3067 169.821 71.2056 170.281 71.4227 170.628L74.9613 176.288C75.1791 176.635 75.6323 176.738 75.974 176.518C76.3158 176.297 76.417 175.837 76.1999 175.489L73.054 170.459L78.0061 167.263C78.3478 167.042 78.449 166.582 78.232 166.235C78.0149 165.887 77.5617 165.785 77.22 166.005L71.6485 169.6ZM167.535 191.107L72.2015 169.502L71.8821 170.956L167.215 192.561L167.535 191.107Z" fill="black"/>
<path d="M67.8565 152.876C68.143 153.167 68.6073 153.167 68.8936 152.876L73.5606 148.135C73.8466 147.845 73.8466 147.372 73.5606 147.082C73.2742 146.79 72.8098 146.79 72.5235 147.082L68.3751 151.296L64.2268 147.082C63.9404 146.79 63.4761 146.79 63.1897 147.082C62.9032 147.372 62.9032 147.845 63.1897 148.135L67.8565 152.876ZM67.6418 104.67V152.349H69.1084V104.67H67.6418Z" fill="black"/>
</svg>
